<?xml version="1.0" standalone="no"?>
<!DOCTYPE svg PUBLIC "-//W3C//DTD SVG 20010904//EN"
 "http://www.w3.org/TR/2001/REC-SVG-20010904/DTD/svg10.dtd">
<svg version="1.0" xmlns="http://www.w3.org/2000/svg"
 width="700.000000pt" height="700.000000pt" viewBox="0 0 700.000000 700.000000"
 preserveAspectRatio="xMidYMid meet">
<metadata>
Created by potrace 1.14, written by Peter Selinger 2001-2017
</metadata>
<g transform="translate(0.000000,700.000000) scale(0.100000,-0.100000)"
fill="#000000" stroke="none">
<path d="M1477 6562 c-12 -3 42 -80 200 -290 l217 -287 1 -258 1 -257 -96 -73
c-170 -132 -380 -344 -505 -512 -16 -22 -32 -42 -35 -45 -30 -29 -166 -252
-228 -372 -92 -178 -196 -460 -226 -610 -2 -12 -11 -54 -19 -93 -18 -82 -25
-121 -33 -190 -3 -27 -8 -61 -11 -75 -9 -45 -11 -483 -2 -555 23 -190 21 -173
53 -325 71 -339 204 -651 408 -958 149 -224 343 -436 553 -605 55 -44 99 -84
97 -89 -1 -5 -90 -126 -197 -268 -108 -143 -192 -260 -188 -261 27 -3 3901 -4
3916 0 9 2 59 53 110 115 117 141 130 156 142 170 6 6 30 36 55 66 24 30 54
66 66 80 13 14 45 52 72 85 27 33 104 125 171 204 66 79 119 146 117 150 -2 3
-135 6 -295 6 -160 -1 -291 2 -291 5 0 3 19 26 43 51 274 295 500 723 611
1154 19 77 38 158 41 180 3 22 8 49 10 61 4 20 9 54 25 194 8 78 6 492 -4 545
-3 17 -7 50 -11 75 -52 424 -235 886 -492 1240 -74 103 -84 115 -184 229 -301
343 -708 618 -1144 771 -163 58 -380 112 -505 126 -25 3 -51 7 -58 10 -36 11
-201 19 -414 19 l-238 -1 0 293 c0 227 -3 293 -12 294 -33 3 -1706 4 -1721 1z"/>
</g>
</svg>
